# xmcd
#
# Track frame offsets:
#	150
#	14159
#	29657
#	44572
#	58598
#	70553
#	87821
#	104715
#	115088
#	127477
#	143313
#	157592
#	168287
#	185750
#
# Disc length: 2671 seconds
#
# Revision: 0
# Processed by: cddbd v1.5.1PL2 Copyright (c) Steve Scherf et al.
# Submitted via: EasyCDDAExtractor 9.1.0.1
#
DISCID=c20a6d0e
DTITLE=Paulo Bionny - Cantando MPB
DYEAR=1900
DGENRE=Country
TTITLE0=É demais para mim
TTITLE1=Rasa
TTITLE2=Que nem maré
TTITLE3=Apenas mais um amor
TTITLE4=Onde está meu amor
TTITLE5=A flor da pele
TTITLE6=Verdade Chinesa
TTITLE7=Avião
TTITLE8=A paz
TTITLE9=Confesso
TTITLE10=Lenha
TTITLE11=Desenho de giz
TTITLE12=Reconvexo
TTITLE13=Bem que se quiz
EXTD=
EXTT0=
EXTT1=
EXTT2=
EXTT3=
EXTT4=
EXTT5=
EXTT6=
EXTT7=
EXTT8=
EXTT9=
EXTT10=
EXTT11=
EXTT12=
EXTT13=
PLAYORDER=
